# xmcd CD database file
#
# Track frame offsets:
#	150
#	26939
#	59427
#	87306
#	106983
#	120364
#	133125
#	151731
#	164766
#
# Disc length: 2374 seconds
#
# Revision: 2
# Processed by: cddbd v1.5.2PL0 Copyright (c) Steve Scherf et al.
# Submitted via: CDex 1.51
#
DISCID=76094409
DTITLE=Brown, James - It's A New Day - So Let A Man Come In [2007 Remaster]
DYEAR=1970
DGENRE=Soul
TTITLE0=It's A New Day [Part 1 and 2]
TTITLE1=Let A Man Come In And Do The Popcorn
TTITLE2=World [Part 1 and 2]
TTITLE3=Georgia On My Mind
TTITLE4=It's A Man's Man's Man's World
TTITLE5=Give It Up Or Turn It A Loose
TTITLE6=If I Ruled The World
TTITLE7=The Man In The Glass [Part 1]
TTITLE8=I'm Not Demanding [Part 1]
EXTD=YEAR: 1970
EXTT0=
EXTT1=
EXTT2=
EXTT3=
EXTT4=
EXTT5=
EXTT6=
EXTT7=
EXTT8=
PLAYORDER=
